<svg width="29" height="29" viewBox="0 0 29 29" fill="none" xmlns="http://www.w3.org/2000/svg">
<path d="M12.5979 3.09017C13.1966 1.24755 15.8034 1.24755 16.4021 3.09017L17.7025 7.0922C18.2379 8.74029 19.7738 9.85613 21.5067 9.85613H25.7147C27.6521 9.85613 28.4577 12.3354 26.8902 13.4742L23.4859 15.9476C22.084 16.9661 21.4973 18.7716 22.0328 20.4197L23.3332 24.4217C23.9319 26.2643 21.8229 27.7966 20.2555 26.6578L16.8511 24.1844C15.4492 23.1658 13.5508 23.1658 12.1489 24.1844L8.74453 26.6578C7.1771 27.7966 5.06814 26.2644 5.66684 24.4217L6.96718 20.4197C7.50268 18.7716 6.91605 16.9661 5.5141 15.9476L2.10976 13.4742C0.542336 12.3354 1.34789 9.85613 3.28533 9.85613H7.49332C9.22623 9.85613 10.7621 8.74029 11.2975 7.0922L12.5979 3.09017Z" fill="#FFC800" stroke="#FEB100" stroke-width="2"/>
</svg>
