<svg width="130" height="109" viewBox="0 0 130 109" fill="none" xmlns="http://www.w3.org/2000/svg">
<path opacity="0.4" d="M118.667 82.9202C122 88.2699 116 92.2822 110 92.9509C104 93.6196 97.3333 92.2822 91.3333 94.9571C88.6667 96.2945 86.6667 98.9693 85.3333 100.975C82.6667 104.319 78.6667 106.325 74 107.663C67.3333 109 60 109 52.6667 109C44 109 36.6667 106.325 29.3333 104.319C24.6667 102.982 20 103.65 15.3333 103.65C10.6667 103.65 5.33334 103.65 0.666675 102.313C-3.33332 100.975 -6.66666 99.638 -9.33332 97.6319C-17.3333 91.6135 -5.99999 84.9264 -9.33332 78.2393C-11.3333 74.227 -18 74.227 -18 69.546C-18 66.2025 -12.6667 64.1963 -9.33332 62.8589C-3.33332 60.184 2.66667 58.8466 8.66667 56.8405C11.3333 56.1718 14.6667 55.5031 17.3333 54.8344C20.6667 54.1656 23.3333 53.4969 26.6667 53.4969C30.6667 52.8282 34.6667 52.8282 38 52.1595C42 52.1595 45.3333 51.4908 49.3333 51.4908C57.3333 51.4908 64.6667 51.4908 72.6667 52.8282C76.6667 54.1656 80.6667 54.8344 84.6667 55.5031C91.3333 56.8405 104.667 60.184 102 68.2086C101.333 69.546 100.667 70.8834 100.667 72.2209C100.667 74.8957 105.333 76.2331 108 76.9018C112 78.2393 116 79.5767 118.667 82.9202Z" fill="#1AA5DE"/>
<path d="M99.3333 64.1963C100 66.8712 97.3333 70.2147 99.3333 72.2209C100 73.5583 101.333 74.227 102.667 74.8957C101.333 74.227 100.667 73.5583 100.667 72.2209C100.667 70.8834 101.333 69.546 102 68.2086C103.333 64.1963 100.667 61.5215 96.6667 59.5153C97.3333 60.8528 98.6667 62.1902 99.3333 64.1963Z" fill="#C2E6EF"/>
<path d="M119.333 84.9264C119.333 86.2638 118.667 87.6012 117.333 88.2699C115.333 89.6074 113.333 90.2761 111.333 90.9448C109.333 91.6135 106.667 91.6135 104.667 91.6135C102 91.6135 98.6667 91.6135 96 92.2822C94.6667 92.2822 92.6667 92.9509 91.3333 93.6196C90 94.2883 89.3333 94.9571 88 95.6258C86 97.6319 83.3333 100.307 81.3333 102.313C80.6667 102.313 80 102.982 79.3333 103.65L78.6667 104.319C76.6667 105.656 74.6667 106.325 72.6667 106.325C70 106.994 66.6667 107.663 64 107.663C61.3333 107.663 58.6667 108.331 55.3333 108.331C52 108.331 48.6667 107.663 45.3333 106.325C44 105.656 42 105.656 40.6667 104.988C38.6667 104.319 37.3333 103.65 35.3333 103.65C32 102.982 28 102.982 24.6667 102.982C21.3333 102.982 17.3333 103.65 14 103.65C8 103.65 1.33333 102.313 -4 98.9693C-6 97.6319 -7.99999 96.2945 -9.33333 94.2883C-10.6667 92.2822 -9.99999 89.6074 -9.33333 87.6012C-7.99999 84.9264 -5.99999 82.9202 -5.99999 80.2454C-5.99999 78.908 -6.66667 77.5706 -8 76.2331C-8.66667 75.5644 -10 74.8957 -11.3333 74.227C-12.6667 73.5583 -13.3333 73.5583 -14.6667 72.8896C-16 72.2209 -16.6667 71.5521 -17.3333 70.2147C-18 68.8773 -16.6667 66.8712 -15.3333 66.2025C-16.6667 67.5399 -18 68.8773 -18 70.2147C-18 74.8957 -11.3333 75.5644 -9.33333 78.908C-5.99999 85.5951 -17.3333 91.6135 -9.33333 98.3006C-6.66666 100.307 -2.66666 102.313 0.666672 102.982C5.33334 104.319 9.99999 104.319 15.3333 104.319C20 104.319 24.6667 103.65 29.3333 104.988C37.3333 106.994 44.6667 109.669 52.6667 109.669C59.3333 109.669 67.3333 109.669 74 108.331C78.6667 107.663 82.6667 104.988 85.3333 101.644C87.3333 99.638 88.6667 96.9632 91.3333 95.6258C96.6667 92.2822 104 94.2883 110 92.9509C114.667 92.2822 120.667 89.6074 119.333 84.9264Z" fill="#C2E6EF"/>
<path d="M1.33334 97.6319C-0.139424 97.6319 -1.33334 97.0331 -1.33334 96.2945C-1.33334 95.5558 -0.139424 94.9571 1.33334 94.9571C2.8061 94.9571 4 95.5558 4 96.2945C4 97.0331 2.8061 97.6319 1.33334 97.6319Z" fill="#19BEE7"/>
<path d="M8.66666 99.638C7.93028 99.638 7.33334 99.3386 7.33334 98.9693C7.33334 98.6 7.93028 98.3006 8.66666 98.3006C9.40304 98.3006 10 98.6 10 98.9693C10 99.3386 9.40304 99.638 8.66666 99.638Z" fill="#19BEE7"/>
<path d="M60.6667 104.988C59.1939 104.988 58 104.389 58 103.65C58 102.912 59.1939 102.313 60.6667 102.313C62.1394 102.313 63.3333 102.912 63.3333 103.65C63.3333 104.389 62.1394 104.988 60.6667 104.988Z" fill="#19BEE7"/>
<path d="M70.6667 104.319C69.9303 104.319 69.3333 104.02 69.3333 103.65C69.3333 103.281 69.9303 102.982 70.6667 102.982C71.403 102.982 72 103.281 72 103.65C72 104.02 71.403 104.319 70.6667 104.319Z" fill="#19BEE7"/>
<path d="M110.667 87.6012C109.93 87.6012 109.333 87.3018 109.333 86.9325C109.333 86.5632 109.93 86.2638 110.667 86.2638C111.403 86.2638 112 86.5632 112 86.9325C112 87.3018 111.403 87.6012 110.667 87.6012Z" fill="#19BEE7"/>
<path d="M95.3333 64.1963C94.5969 64.1963 94 63.8969 94 63.5276C94 63.1583 94.5969 62.8589 95.3333 62.8589C96.0697 62.8589 96.6667 63.1583 96.6667 63.5276C96.6667 63.8969 96.0697 64.1963 95.3333 64.1963Z" fill="#19BEE7"/>
<path opacity="0.4" d="M90.6667 78.2393C92 79.5767 94 80.9141 93.3333 82.9202C92.6667 86.9325 86.6667 88.2699 84 89.6074C79.3333 92.2822 75.3333 96.2945 70 98.3006C65.3333 100.307 60 100.975 54.6667 100.307C49.3333 99.638 44 97.6319 38.6667 96.2945C31.3333 94.9571 24.6667 96.2945 17.3333 94.9571C13.3333 94.2883 10 93.6196 6.66667 90.9448C2.00001 87.6012 3.33334 84.2577 3.33334 79.5767C3.33334 76.9018 0.666671 75.5644 -0.666662 73.5583C-2 70.8834 -1.33332 66.8712 0.666677 64.1963C5.33334 58.8466 14 56.1718 20.6667 54.8344C29.3333 53.4969 38 54.1656 46.6667 53.4969C54 53.4969 61.3333 53.4969 68.6667 54.1656C76.6667 56.8405 87.3333 58.8466 90 67.5399C91.3333 71.5522 88 74.8957 90.6667 78.2393Z" fill="#19BEE7"/>
<path opacity="0.8" d="M84.6667 80.2454C78.6667 88.9387 66.6667 92.9509 56.6667 94.2883C50.6667 94.9571 44.6667 95.6258 38 94.9571C33.3333 94.2883 28.6667 93.6196 24.6667 92.2822C15.3333 88.9387 1.33334 81.5828 4.00001 69.546C5.33334 64.865 9.33334 59.5153 14 58.1779C15.3333 57.5092 16 56.8405 17.3333 56.1718C20.6667 55.5031 24 54.1656 27.3333 54.1656C34 53.4969 41.3333 52.8282 48 52.8282C56 52.8282 63.3333 53.4969 70 55.5031C75.3333 56.8405 81.3333 58.8466 84.6667 63.5276C84.6667 63.5276 84.6667 63.5276 84.6667 64.1963C88.6667 68.8773 88 75.5644 84.6667 80.2454Z" fill="#19BEE7"/>
<path d="M10 95.6258C6.66667 94.9571 2.66666 93.6196 2.66666 88.9387C2 93.6196 5.33333 96.2945 10 95.6258Z" fill="#C2E6EF"/>
<path d="M6 96.2945C5.33333 95.6258 4 95.6258 3.33334 94.9571C2.66667 94.2883 1.33334 93.6196 1.33334 92.9509C1.33334 93.6196 2.66667 94.9571 2.66667 95.6258C3.33333 96.2945 4.66667 96.2945 6 96.2945Z" fill="#C2E6EF"/>
<path d="M95.3333 79.5767C96 80.9141 96 82.2515 96.6667 82.9202C96.6667 84.9264 94.6667 86.2638 93.3333 87.6012C93.3333 87.6012 92.6667 88.2699 93.3333 88.2699C95.3333 87.6012 96.6667 86.2638 97.3333 84.2577C97.3333 82.9203 96.6667 80.9141 95.3333 79.5767Z" fill="#C2E6EF"/>
<path d="M98.6667 84.2577C98.6667 86.2638 96.6667 86.9325 96 87.6012C96 87.6012 95.3333 88.2699 96 88.2699C96.6667 87.6012 99.3333 85.5951 98.6667 84.2577Z" fill="#C2E6EF"/>
<path d="M58 101.644C56 101.644 54 101.644 51.3333 100.975C49.3333 100.307 48 100.307 46 99.638C50 101.644 54 102.982 58 101.644C58 102.313 58.6667 101.644 58 101.644Z" fill="#C2E6EF"/>
<path d="M81.3333 64.865C76.6667 62.1902 66 61.5215 62.6667 68.2086C60 66.2025 53.3333 64.865 46 64.865C38.6667 64.865 32.6667 66.2025 29.3333 68.2086C26 61.5215 15.3333 62.1902 10.6667 64.865C9.33334 65.5337 8 66.8712 7.33334 67.5399C8 64.1963 8.66667 60.8528 11.3333 58.8466C16 54.1656 24 51.4908 30 49.4847C34.6667 48.1472 40 48.1472 44.6667 48.1472C52.6667 48.1472 60 50.1534 68.6667 52.8282C75.3333 54.8344 81.3333 58.1779 83.3333 63.5276C83.3333 64.865 84 66.2025 84 67.5399C83.3333 66.8712 82 65.5337 81.3333 64.865Z" fill="#D9D119"/>
<path d="M26 55.5031C28.6667 54.1656 32 53.4969 34.6667 52.8282C36.6667 52.1595 39.3333 52.1595 41.3333 52.1595C42 52.1595 42 52.1595 42.6667 52.1595C46 52.1595 49.3333 52.8282 52.6667 53.4969C56 54.1656 58.6667 54.8344 62 55.5031C65.3333 56.1718 72.6667 58.8466 73.3333 62.8589C68.6667 62.8589 64.6667 64.1963 62.6667 68.2086C60 66.2025 53.3333 64.865 46 64.865C38.6667 64.865 32.6667 66.2025 29.3333 68.2086C27.3333 63.5276 22 62.8589 17.3333 62.8589C17.3333 62.1902 17.3333 60.8528 18 60.184C20.6667 58.1779 23.3333 56.8405 26 55.5031Z" fill="#D9D119"/>
<path d="M42 58.1779C47.3333 58.1779 53.3333 58.8466 58 60.184C61.3333 60.8528 64 62.8589 67.3333 64.865C65.3333 65.5337 64 66.8712 63.3333 68.8773C60.6667 66.8712 54 65.5337 46.6667 65.5337C39.3333 65.5337 33.3333 66.8712 30 68.8773C28.6667 65.5337 26 64.1963 22.6667 63.5276C28 59.5153 35.3333 58.1779 42 58.1779Z" fill="#D9D119"/>
<path d="M82.6667 65.5337C82.6667 65.5337 81.3333 64.1963 79.3333 63.5276C79.3333 63.5276 78.6667 60.1841 76.6667 57.5092C77.3333 58.1779 80.6667 58.8466 82.6667 65.5337Z" fill="#D9D119"/>
<path d="M75.3333 59.5153C74.9651 59.5153 74.6667 59.2159 74.6667 58.8466C74.6667 58.4773 74.9651 58.1779 75.3333 58.1779C75.7015 58.1779 76 58.4773 76 58.8466C76 59.2159 75.7015 59.5153 75.3333 59.5153Z" fill="white"/>
<path d="M61.3333 52.1595C60.9651 52.1595 60.6667 51.8601 60.6667 51.4908C60.6667 51.1215 60.9651 50.8221 61.3333 50.8221C61.7015 50.8221 62 51.1215 62 51.4908C62 51.8601 61.7015 52.1595 61.3333 52.1595Z" fill="white"/>
<path d="M14.6667 60.8528C14.2985 60.8528 14 60.5534 14 60.184C14 59.8147 14.2985 59.5153 14.6667 59.5153C15.0348 59.5153 15.3333 59.8147 15.3333 60.184C15.3333 60.5534 15.0348 60.8528 14.6667 60.8528Z" fill="white"/>
<path d="M22 57.5092C21.6318 57.5092 21.3333 57.2098 21.3333 56.8405C21.3333 56.4712 21.6318 56.1718 22 56.1718C22.3682 56.1718 22.6667 56.4712 22.6667 56.8405C22.6667 57.2098 22.3682 57.5092 22 57.5092Z" fill="white"/>
<path d="M43.3333 51.4908C43.3333 51.4908 47.3333 47.4785 53.3333 48.816C58.6667 50.1534 64 58.1779 80 47.4785C80 47.4785 82.6667 46.8098 84 48.816C84 49.4847 85.3333 50.1534 83.3333 52.1595C79.3333 56.1718 68.6667 61.5215 62 60.8528C52.6667 60.1841 43.3333 51.4908 43.3333 51.4908Z" fill="#F1BD8B"/>
<path d="M48.6667 48.816C54 50.8221 58 55.5031 60.6667 60.8528C51.3333 59.5153 43.3333 51.4908 43.3333 51.4908C43.3333 51.4908 46 49.4847 48.6667 48.816Z" fill="#F1BD8B"/>
<path d="M44 47.4785C44 47.4785 50 48.1472 53.3333 55.5031C56 61.5215 58.6667 80.9141 58.6667 80.9141C58.6667 80.9141 47.3333 88.2699 33.3333 84.2577C33.3333 84.2577 32 64.865 32 53.4969C32 50.8221 32.6667 50.1534 34 49.4847C34 49.4847 36.6667 47.4785 42 47.4785H44Z" fill="#F1BD8B"/>
<path d="M34.6667 50.1534C38 51.4908 38.6667 55.5031 37.3333 58.8466C36 60.8528 34.6667 62.8589 32.6667 64.865C32.6667 60.8528 32.6667 57.5092 32.6667 54.1656C32.6667 51.4908 33.3333 50.8221 34.6667 50.1534Z" fill="#F1BD8B"/>
<path d="M50.6667 76.2331C48 76.9018 45.3333 76.9018 42.6667 77.5706C41.3333 77.5706 40 77.5706 38.6667 78.2393C38 78.908 37.3333 79.5767 37.3333 80.9141C37.3333 82.2515 37.3333 83.589 37.3333 85.5951C36 85.5951 35.3333 84.9264 34 84.9264C34 84.9264 33.3333 76.9018 33.3333 68.8773C34 68.8773 34.6667 68.2086 35.3333 68.2086C37.3333 67.5399 39.3333 65.5337 40 63.5276C40.6667 60.8528 40.6667 58.1779 39.3333 55.5031C38.6667 53.4969 37.3333 52.1595 36 50.8221C36 50.8221 36 50.8221 36 50.1534C36.6667 49.4847 39.3333 48.1472 44 48.1472L45.3333 47.4785C45.3333 47.4785 51.3333 48.1472 54.6667 55.5031C55.3333 58.8466 56.6667 66.8712 58 73.5583C56 74.8957 53.3333 76.2331 50.6667 76.2331Z" fill="#F1BD8B"/>
<path d="M45.3333 47.4785H44C44 47.4785 49.3333 52.1595 47.3333 54.1656C45.3333 56.1718 42.6667 54.8344 41.3333 52.8282C40.6667 50.8221 38.6667 47.4785 37.3333 47.4785C37.3333 47.4785 36 46.8098 35.3333 48.816C35.3333 48.816 40 53.4969 40.6667 60.1841C42 66.8712 32.6667 69.546 32.6667 69.546L33.3333 77.5706C33.3333 77.5706 50.6667 77.5706 58 72.8896C58 72.8896 58 63.5276 56.6667 58.8466C55.3333 54.8344 48.6667 49.4847 45.3333 47.4785Z" fill="#8B549F"/>
<path opacity="0.4" d="M32.6667 69.546C32.6667 69.546 42 66.8712 40.6667 60.1841C39.3333 53.4969 35.3333 48.816 35.3333 48.816C36 48.1472 36 48.1472 36.6667 47.4785C39.3333 50.1534 41.3333 53.4969 42 56.1718C42.6667 58.1779 42.6667 60.184 43.3333 61.5215C44 62.8589 44.6667 63.5276 45.3333 64.1963C46.6667 64.865 48 64.865 50 64.865C51.3333 64.865 53.3333 64.1963 54.6667 63.5276C55.3333 62.8589 56 62.1902 56.6667 61.5215C57.3333 66.2025 57.3333 72.8896 57.3333 72.8896C50.6667 77.5706 32.6667 77.5706 32.6667 77.5706V69.546Z" fill="#8B549F"/>
<path opacity="0.4" d="M47.3333 54.1656C49.3333 52.1595 44 47.4785 44 47.4785H44.6667C46 48.816 46.6667 50.1534 47.3333 51.4908C48 52.1595 48 53.4969 48 54.1656C47.3333 55.5031 46 55.5031 45.3333 55.5031C41.3333 55.5031 40 50.8221 38 47.4785C39.3333 48.1472 40.6667 50.8221 41.3333 52.1595C42.6667 54.1656 46 56.1718 47.3333 54.1656Z" fill="#8B549F"/>
<path opacity="0.4" d="M40.6667 60.1841C39.3333 53.4969 35.3333 48.816 35.3333 48.816C35.3333 48.816 35.3333 48.1472 36 48.1472C37.3333 50.1534 38.6667 52.1595 40 54.1656C41.3333 56.8405 42.6667 59.5153 42 62.8589C42 64.865 40.6667 65.5337 40 67.5399C39.3333 68.2086 38.6667 69.546 38.6667 70.8834C38.6667 73.5583 38 75.5644 38 78.2393C35.3333 78.2393 34 78.2393 34 78.2393L33.3333 70.2147C32.6667 69.546 42 66.8712 40.6667 60.1841Z" fill="#8B549F"/>
<path d="M92 48.1472C92 47.4785 87.3333 48.1472 87.3333 48.1472C87.3333 48.1472 92 46.1411 92 45.4724C91.3333 44.8037 86 46.8098 86 46.8098C86 46.8098 92 42.7975 91.3333 42.1288C90.6667 40.7914 85.3333 45.4724 85.3333 45.4724C85.3333 45.4724 90 40.1227 89.3333 38.7853C88.6667 38.1166 86 40.7914 82.6667 44.8037C83.3333 42.7975 82.6667 40.1227 81.3333 40.1227C80.6667 40.1227 81.3333 42.1288 80 44.135C79.3333 44.8037 78.6667 46.1411 78.6667 47.4785C78.6667 49.4847 80.6667 52.1595 82.6667 52.1595C84 52.1595 85.3333 50.8221 86 50.1534C86.6667 49.4847 92 49.4847 92 48.1472Z" fill="#F1BD8B"/>
<path d="M84.6667 48.816C84.6667 48.816 84.6667 48.8159 84.6667 48.1472V47.4785C84.6667 47.4785 84.6667 47.4785 84.6667 46.8098C84.6667 46.8098 84.6667 46.8098 84.6667 46.1411C84.6667 46.1411 84.6667 46.1411 84.6667 45.4724H84C84 45.4724 84 46.1411 84.6667 46.1411C84 47.4785 84 47.4785 84.6667 48.816Z" fill="#C0895A"/>
<path d="M8.66666 67.5399C9.33333 66.8712 10 65.5337 11.3333 64.865C16 62.1902 26.6667 61.5215 30 68.2086C32.6667 70.8834 39.3333 72.8896 46.6667 72.8896C54 72.8896 60 70.8834 63.3333 68.2086C66 61.5215 76.6667 62.8589 81.3333 64.865C82 65.5337 83.3333 66.8712 84 67.5399C84.6667 72.2209 83.3333 76.9018 80 80.9141C75.3333 86.2638 67.3333 88.2699 61.3333 90.2761C56.6667 91.6135 51.3333 92.2822 46.6667 92.2822C38.6667 92.2822 30.6667 91.6135 23.3333 88.9387C18.6667 86.9325 12.6667 83.589 10 78.2393C8.66666 75.5644 7.99999 72.2209 8.66666 68.8773C8.66666 68.2086 8.66666 68.2086 8.66666 67.5399Z" fill="#D9D119"/>
<path d="M30 68.2086C32.6667 70.8834 39.3333 72.8896 46.6667 72.8896C54 72.8896 60 70.8834 63.3333 68.2086C65.3333 64.1963 70 62.8589 74 62.8589C74 63.5276 74 64.865 73.3333 65.5337C70.6667 70.2147 64.6667 72.8896 60 74.227C53.3333 76.2331 46.6667 76.2331 40 75.5644C34.6667 74.8957 29.3333 72.8896 25.3333 70.2147C22.6667 68.8773 18.6667 66.2025 18.6667 62.8589C22.6667 62.8589 28 64.1963 30 68.2086Z" fill="#D9D119"/>
<path d="M66 68.8773C64 70.2147 62 71.5521 59.3333 72.2209C56.6666 72.8896 53.3333 73.5583 50.6666 73.5583C56 72.8896 60.6666 71.5522 62.6666 68.8773C63.3333 66.2025 65.3333 64.865 67.3333 64.1963C67.3333 65.5337 67.3333 67.5399 66 68.8773Z" fill="#D9D119"/>
<path d="M28 68.8773C26.6666 68.2086 22.6666 65.5337 24 63.5276C26.6666 64.1963 28.6666 65.5337 30 68.2086C31.3333 69.546 32.6666 70.2147 35.3333 70.8834C32.6666 70.8834 30 70.2147 28 68.8773Z" fill="#D9D119"/>
<path d="M80 66.8712C81.3333 67.5399 82.6666 68.2086 83.3333 69.546C83.3333 74.227 80 87.6012 52 90.2761C52.6666 90.2761 81.3333 82.9202 80 66.8712Z" fill="#D9D119"/>
<path d="M68 80.9141C67.6318 80.9141 67.3333 80.6147 67.3333 80.2454C67.3333 79.8761 67.6318 79.5767 68 79.5767C68.3682 79.5767 68.6667 79.8761 68.6667 80.2454C68.6667 80.6147 68.3682 80.9141 68 80.9141Z" fill="white"/>
<path d="M58.6667 86.2638C58.2985 86.2638 58 85.9644 58 85.5951C58 85.2258 58.2985 84.9264 58.6667 84.9264C59.0348 84.9264 59.3333 85.2258 59.3333 85.5951C59.3333 85.9644 59.0348 86.2638 58.6667 86.2638Z" fill="white"/>
<path d="M51.3333 80.9141C50.9651 80.9141 50.6667 80.6147 50.6667 80.2454C50.6667 79.8761 50.9651 79.5767 51.3333 79.5767C51.7015 79.5767 52 79.8761 52 80.2454C52 80.6147 51.7015 80.9141 51.3333 80.9141Z" fill="white"/>
<path d="M39.3333 75.5644C38.9651 75.5644 38.6667 75.265 38.6667 74.8957C38.6667 74.5264 38.9651 74.227 39.3333 74.227C39.7015 74.227 40 74.5264 40 74.8957C40 75.265 39.7015 75.5644 39.3333 75.5644Z" fill="white"/>
<path d="M47.3333 90.2761C46.9651 90.2761 46.6667 89.9767 46.6667 89.6074C46.6667 89.238 46.9651 88.9387 47.3333 88.9387C47.7015 88.9387 48 89.238 48 89.6074C48 89.9767 47.7015 90.2761 47.3333 90.2761Z" fill="white"/>
<path d="M39.3333 85.5951C38.9651 85.5951 38.6667 85.2957 38.6667 84.9264C38.6667 84.5571 38.9651 84.2577 39.3333 84.2577C39.7015 84.2577 40 84.5571 40 84.9264C40 85.2957 39.7015 85.5951 39.3333 85.5951Z" fill="white"/>
<path d="M30 78.908C29.6318 78.908 29.3333 78.6086 29.3333 78.2393C29.3333 77.8699 29.6318 77.5706 30 77.5706C30.3682 77.5706 30.6667 77.8699 30.6667 78.2393C30.6667 78.6086 30.3682 78.908 30 78.908Z" fill="white"/>
<path d="M18 84.2577C17.6318 84.2577 17.3333 83.9583 17.3333 83.589C17.3333 83.2196 17.6318 82.9202 18 82.9202C18.3682 82.9202 18.6667 83.2196 18.6667 83.589C18.6667 83.9583 18.3682 84.2577 18 84.2577Z" fill="white"/>
<path d="M32.6666 90.2761C32.2985 90.2761 32 89.9767 32 89.6074C32 89.238 32.2985 88.9387 32.6666 88.9387C33.0348 88.9387 33.3333 89.238 33.3333 89.6074C33.3333 89.9767 33.0348 90.2761 32.6666 90.2761Z" fill="white"/>
<path d="M17.3333 77.5706C16.9651 77.5706 16.6667 77.2712 16.6667 76.9018C16.6667 76.5325 16.9651 76.2331 17.3333 76.2331C17.7015 76.2331 18 76.5325 18 76.9018C18 77.2712 17.7015 77.5706 17.3333 77.5706Z" fill="white"/>
<path d="M10.6666 74.227C10.2985 74.227 9.99997 73.9276 9.99997 73.5583C9.99997 73.189 10.2985 72.8896 10.6666 72.8896C11.0348 72.8896 11.3333 73.189 11.3333 73.5583C11.3333 73.9276 11.0348 74.227 10.6666 74.227Z" fill="white"/>
<path d="M16 68.2086C15.6318 68.2086 15.3333 67.9092 15.3333 67.5399C15.3333 67.1706 15.6318 66.8712 16 66.8712C16.3682 66.8712 16.6667 67.1706 16.6667 67.5399C16.6667 67.9092 16.3682 68.2086 16 68.2086Z" fill="white"/>
<path d="M74.6666 74.227C74.2985 74.227 74 73.9276 74 73.5583C74 73.189 74.2985 72.8896 74.6666 72.8896C75.0348 72.8896 75.3333 73.189 75.3333 73.5583C75.3333 73.9276 75.0348 74.227 74.6666 74.227Z" fill="white"/>
<path d="M58.6667 74.227C58.2985 74.227 58 73.9276 58 73.5583C58 73.189 58.2985 72.8896 58.6667 72.8896C59.0348 72.8896 59.3333 73.189 59.3333 73.5583C59.3333 73.9276 59.0348 74.227 58.6667 74.227Z" fill="white"/>
<path d="M74 66.8712C73.6318 66.8712 73.3333 66.5718 73.3333 66.2025C73.3333 65.8331 73.6318 65.5337 74 65.5337C74.3682 65.5337 74.6667 65.8331 74.6667 66.2025C74.6667 66.5718 74.3682 66.8712 74 66.8712Z" fill="white"/>
<path d="M34.6666 50.8221C34.6666 50.8221 39.3333 52.8282 38 57.5092C37.3333 59.5153 26.6666 66.8712 26.6666 68.8773C26 70.8834 28 84.9264 28 84.9264L24 85.5951C24 85.5951 20 72.2209 20 68.2086C19.3333 64.1963 29.3333 49.4847 34.6666 50.8221Z" fill="#F1BD8B"/>
<path d="M22 84.9264C22 84.2577 22 83.589 22.6667 82.9202C22.6667 82.2515 24 82.2515 24 81.5828C25.3333 81.5828 26 82.2515 27.3333 82.2515C28 82.9203 28.6667 83.589 30 84.2577C30.6667 84.9264 31.3333 86.2638 32 86.9325C32 87.6012 32.6667 88.9387 31.3333 88.2699C30 87.6012 30 86.2638 28.6667 85.5951C28.6667 86.9325 29.3333 88.2699 30 89.6074C30.6667 90.2761 30.6667 90.9448 30.6667 91.6135C30.6667 92.2822 28.6667 90.2761 28.6667 90.2761C28 89.6074 27.3333 88.2699 27.3333 87.6012C27.3333 88.2699 28 90.2761 28.6667 90.9448C28.6667 91.6135 29.3333 92.2822 28.6667 92.2822C28 92.2822 27.3333 90.2761 26.6667 89.6074L26 88.2699C26 88.9387 27.3333 92.2822 26.6667 92.2822C25.3333 92.2822 25.3333 89.6074 25.3333 88.9387C25.3333 88.2699 24.6667 87.6012 24.6667 86.9325L25.3333 92.2822C25.3333 92.9509 24 92.2822 23.3333 90.2761C23.3333 89.6074 23.3333 88.2699 22.6667 87.6012C22 86.9325 22 86.2638 22 84.9264Z" fill="#F1BD8B"/>
<path d="M44.6667 45.4724L45.3333 50.1534C45.3333 50.1534 42.6667 53.4969 39.3333 48.1472L38 44.8037L44.6667 45.4724Z" fill="#F1BD8B"/>
<path d="M44.6667 45.4724L45.3333 50.1534C45.3333 50.1534 42.6667 53.4969 39.3333 48.1472L38 44.8037L44.6667 45.4724Z" fill="#F1BD8B"/>
<path d="M30 45.4724C30 45.4724 29.3333 48.1472 26.6667 47.4785C23.3333 46.8098 20.6667 43.4663 22.6667 41.4601C24.6667 38.7853 28.6667 42.7975 28.6667 42.7975C28.6667 42.7975 26.6667 39.454 31.3333 31.4294C36 24.0736 36 18.7239 36 18.0552C36 19.3926 36 23.4049 37.3333 21.3988C39.3333 18.0552 38.6667 12.0368 38.6667 12.0368C39.3333 14.7117 41.3333 18.0552 42 15.3804C42 12.0368 40 9.36196 40 9.36196C46 10.0307 48.6667 16.7178 48.6667 16.7178C50 19.3926 51.3333 20.7301 55.3333 22.7362C59.3333 24.7423 61.3333 34.1043 54 41.4601C47.3333 48.1472 38 47.4785 38 47.4785C33.3333 48.1472 30 45.4724 30 45.4724Z" fill="#F1BD8B"/>
<path d="M28 44.8037C28 44.8037 28 44.8037 28 44.135V43.4663V42.7975C28 42.7975 28 42.1288 27.3333 42.1288C27.3333 42.1288 27.3333 42.1288 26.6667 42.1288H26C26 42.1288 25.3333 42.1288 25.3333 42.7975V43.4663C25.3333 43.4663 25.3333 43.4663 25.3333 44.135C25.3333 44.135 25.3333 44.135 25.3333 44.8037C25.3333 44.8037 25.3333 44.8037 25.3333 44.135C25.3333 44.135 25.3333 44.135 25.3333 43.4663C25.3333 43.4663 25.3333 43.4663 26 42.7975H26.6667C26.6667 42.7975 27.3333 42.7975 27.3333 43.4663C27.3333 43.4663 27.3333 43.4663 28 44.135V44.8037Z" fill="#DA6512"/>
<path d="M26.6667 43.4663C26.6667 44.135 26.6667 44.135 27.3333 44.135C27.3333 44.135 27.3333 44.135 26.6667 43.4663Z" fill="#DA6512"/>
<path opacity="0.7" d="M52 27.4172C52.6667 28.0859 52.6667 29.4233 51.3333 30.092C50 30.7607 52 32.0982 52.6667 30.092C54 28.0859 52.6667 26.7485 52 27.4172Z" fill="#EBB01C"/>
<path opacity="0.7" d="M55.3333 32.0982C55.3333 32.0982 54.6667 33.4356 50.6667 34.773C46.6667 36.1104 41.3333 36.1104 41.3333 36.1104C41.3333 36.1104 42 37.4479 42.6667 39.454C43.3333 41.4601 45.3333 44.8037 48.6667 43.4663C51.3333 42.7975 52.6667 40.7914 53.3333 36.7791C54 33.4356 55.3333 33.4356 55.3333 32.0982Z" fill="#EBB01C"/>
<path d="M41.6528 29.2753C41.2527 28.6552 41.1788 27.9898 41.4879 27.7891C41.797 27.5884 42.372 27.9284 42.7721 28.5485C43.1723 29.1686 43.2461 29.834 42.937 30.0346C42.6279 30.2353 42.053 29.8953 41.6528 29.2753Z" fill="#462C15"/>
<path d="M52.3375 23.8183C51.9365 23.1987 51.8618 22.5335 52.1707 22.3324C52.4795 22.1313 53.0549 22.4705 53.4559 23.0901C53.8568 23.7096 53.9315 24.3749 53.6227 24.576C53.3138 24.7771 52.7384 24.4379 52.3375 23.8183Z" fill="#462C15"/>
<path d="M38.6667 24.0736C38 24.7423 38 26.7485 38 26.7485C37.3333 26.7485 36.6667 24.0736 38.6667 23.4049C40 22.0675 42 24.0736 42 24.0736C40.6667 24.7423 40 23.4049 38.6667 24.0736Z" fill="#784419"/>
<path d="M48 19.3926C47.3333 20.0613 48 21.3988 47.3333 21.3988C46.6667 21.3988 46 19.3926 46.6667 18.7239C47.3333 18.0552 49.3333 18.7239 48.6667 19.3926C49.3333 20.0613 48.6667 18.7239 48 19.3926Z" fill="#784419"/>
<path d="M50 28.7546C50 28.0859 50.6667 28.0859 50.6667 28.0859C50.6667 28.0859 50.6667 28.0859 51.3333 28.0859C51.3333 28.0859 51.3333 28.0859 52 28.0859H52.6667C52.6667 28.0859 52.6667 28.0859 52.6667 28.7546V29.4233V30.092C52.6667 30.092 52.6667 30.092 53.3333 30.092V29.4233V28.7546V28.0859H52.6667H52C52 28.0859 52 28.0859 51.3333 28.7546C50.6667 28.0859 50 28.0859 50 28.7546Z" fill="#DA6512"/>
<path d="M42.6667 38.7853C43.3333 39.454 45.3333 39.454 47.3333 38.7853C50 38.1166 51.3333 36.1104 51.3333 35.4417C52 34.773 53.3333 34.773 53.3333 34.1043C52.6667 36.7791 52.6667 41.4601 50 42.7975C47.3333 40.1227 45.3333 40.7914 44 41.4601C44 41.4601 43.3333 40.7914 43.3333 40.1227C43.3333 39.454 43.3333 38.7853 42.6667 38.7853Z" fill="#7B1415"/>
<path d="M47.3333 38.1166C45.3333 38.7853 44 38.7853 42.6667 38.1166C42 36.7791 42 36.1104 42 36.1104C42 36.1104 42.6667 36.7791 48.6667 35.4417C50 35.4417 50.6667 34.773 52 34.773C51.3333 36.1104 50 37.4479 47.3333 38.1166Z" fill="white"/>
<path d="M50.6667 42.7975C50 42.7975 50 43.4663 49.3333 43.4663C47.3333 44.135 46 42.7975 44.6667 41.4601C45.3334 40.7914 48 40.1227 50.6667 42.7975Z" fill="#BA6666"/>
<path d="M55.3333 32.7669C54.6667 32.7669 54.6667 32.7669 55.3333 32.7669C54.6667 33.4356 54.6667 33.4356 54.6667 33.4356L54 34.1043L53.3333 34.773H52.6667H52H51.3333C50.6667 34.773 50.6667 34.773 50 35.4417H49.3333C48.6667 35.4417 48.6667 35.4417 48 35.4417C47.3333 35.4417 47.3333 35.4417 46.6667 35.4417C46 35.4417 46 35.4417 45.3333 35.4417H44.6667H44H43.3333C43.3333 35.4417 43.3333 35.4417 44 35.4417H44.6667H45.3333C46 35.4417 46 35.4417 46.6667 35.4417C47.3333 35.4417 47.3333 35.4417 48 35.4417C48.6667 35.4417 48.6667 35.4417 49.3333 35.4417H50H50.6667C51.3333 35.4417 51.3333 35.4417 52 34.773H52.6667H53.3333H54C54.6667 34.773 54.6667 34.1043 54.6667 34.1043L55.3333 33.4356C54.6667 33.4356 54.6667 33.4356 55.3333 32.7669Z" fill="#DA6512"/>
<path opacity="0.7" d="M26.6667 46.1411C28.6667 46.8098 27.3333 44.135 26 42.7975C24.6667 41.4601 22.6667 44.135 26.6667 46.1411Z" fill="#EBB01C"/>
<path d="M13.3333 15.3804C26 0.668709 38 4.68098 38 4.68098C41.3333 3.34356 40.6667 -0.668713 40.6667 -1.69685e-06C42 2.00613 40.6667 4.01227 40.6667 4.01227C46.6667 2.00613 50.6667 7.35583 49.3333 7.35583C48 7.35583 46.6667 7.35583 46.6667 7.35583C46.6667 7.35583 50 8.02454 50 11.3681C50 14.7117 48.6667 16.0491 48.6667 16.0491C48.6667 16.0491 46.6667 9.36196 40 8.69325C40 8.69325 42.6667 11.3681 42 14.7117C42 18.0552 40 14.0429 38.6667 11.3681C38.6667 11.3681 39.3333 16.7178 37.3333 20.7301C36 22.7362 36 18.7239 36 17.3865C36 18.7239 35.3333 23.4049 31.3333 30.7607C26.6667 38.7853 28.6667 42.1288 28.6667 42.1288C28.6667 42.1288 24.6667 38.7853 22.6667 40.7914C20.6667 43.4663 23.3333 46.8098 26 47.4785C29.3333 48.1472 30 45.4724 30 45.4724C30 45.4724 34 47.4785 38 47.4785C38 47.4785 33.3333 50.8221 24.6667 50.1534C10.6667 48.1472 1.33334 29.4233 13.3333 15.3804Z" fill="#784419"/>
<path opacity="0.6" d="M8.66666 23.4049C6.66666 41.4601 21.3333 48.816 18.6667 42.1288C16 35.4417 20 31.4295 20.6667 32.7669C22 36.7791 26 42.1288 26 35.4417C26 28.7546 30 22.0675 30 22.0675C30 22.0675 30.6667 28.0859 33.3333 21.3988C36 15.3804 36 12.7055 35.3333 12.0368C36.6667 14.0429 36.6667 21.3988 38 18.0552C39.3333 14.0429 38.6667 10.0307 38.6667 10.0307C40 12.7055 42.6667 16.0491 42 14.0429C41.3333 10.0307 38.6667 8.69325 38.6667 8.69325C43.3333 8.02454 47.3333 12.0368 48 13.3742C48.6667 14.7117 50 15.3804 49.3333 12.0368C48.6667 8.69325 42.6667 7.35583 42.6667 7.35583C46 7.35583 48.6667 6.68712 45.3333 5.34969C42 4.01227 39.3333 6.0184 39.3333 6.0184C39.3333 6.0184 40.6667 4.01227 40.6667 2.00613C40.6667 0.668711 40.6667 6.0184 36.6667 6.68712L37.3333 6.0184C37.3333 6.0184 30 3.34356 21.3333 8.69325C30.6667 2.67485 38 5.34969 38 5.34969C41.3333 4.01227 40.6667 -8.01729e-07 40.6667 0.668711C42 2.67485 40.6667 4.68098 40.6667 4.68098C46.6667 2.67485 50.6667 8.02454 49.3333 8.02454C48 8.02454 46.6667 8.02454 46.6667 8.02454C46.6667 8.02454 50 8.02454 50 11.3681C50 14.7117 48.6667 16.0491 48.6667 16.0491C48.6667 16.0491 46.6667 9.36196 40 8.69325C40 8.69325 42.6667 11.3681 42 14.7117C42 18.0552 40 14.0429 38.6667 11.3681C38.6667 11.3681 39.3333 16.7178 37.3333 20.7301C36 22.7362 36 18.7239 36 17.3865C36 18.7239 35.3333 23.4049 31.3333 30.7607C26.6667 38.7853 28.6667 42.1288 28.6667 42.1288C28.6667 42.1288 24.6667 38.7853 22.6667 40.7914C20.6667 43.4663 23.3333 46.8098 26 47.4785C29.3333 48.1472 30 45.4724 30 45.4724C30 45.4724 34 47.4785 38 47.4785C38 47.4785 33.3333 50.8221 24.6667 50.1534C13.3333 48.816 4.66666 35.4417 8.66666 23.4049Z" fill="#784419"/>
<path d="M28 51.4908C28.6667 52.1595 29.3333 52.1595 30 52.1595C31.3333 52.1595 32 51.4908 32.6667 50.8221C33.3333 51.4908 34 52.8282 34.6667 55.5031C35.3333 59.5153 32.6667 62.1902 32 57.5092C32 57.5092 32 61.5215 30.6667 61.5215C29.3333 61.5215 30 58.1779 30 58.1779C30 58.1779 26.6667 62.1902 25.3333 61.5215C24 60.184 26.6667 57.5092 26.6667 57.5092C26.6667 57.5092 24.6667 58.8466 22.6667 58.8466C21.3333 59.5153 22 55.5031 28 51.4908Z" fill="#563012"/>
<path opacity="0.6" d="M28 51.4908C28.6667 52.1595 29.3333 52.1595 30 52.1595C31.3333 52.1595 32 51.4908 32.6667 50.8221C33.3333 51.4908 34 52.8282 34.6667 55.5031C35.3333 59.5153 32.6667 62.1902 32 57.5092C32 57.5092 32 61.5215 30.6667 61.5215C29.3333 61.5215 30 58.1779 30 58.1779C30 58.1779 26.6667 62.1902 25.3333 61.5215C24 60.184 26.6667 57.5092 26.6667 57.5092C26.6667 57.5092 24.6667 58.8466 22.6667 58.8466C21.3333 59.5153 22 55.5031 28 51.4908ZM28.6667 56.1718C28.6667 56.1718 26.6667 58.8466 26 59.5153C25.3333 60.8528 28.6667 60.8528 30.6667 56.1718C30.6667 56.1718 30 59.5153 30.6667 59.5153C31.3333 60.184 32.6667 56.8405 32 54.1656C32 54.1656 33.3333 56.1718 33.3333 57.5092C33.3333 59.5153 34.6667 55.5031 32 51.4908V52.8282C31.3333 52.8282 31.3333 52.1595 31.3333 52.1595C31.3333 52.1595 31.3333 53.4969 30.6667 53.4969C30 53.4969 30.6667 52.1595 30.6667 52.1595C30.6667 52.1595 29.3333 53.4969 28.6667 53.4969C28 53.4969 28.6667 52.1595 28.6667 52.1595C28.6667 52.1595 28 52.8282 26.6667 53.4969C25.3333 54.8344 26 52.8282 27.3333 51.4908C27.3333 51.4908 22.6667 54.1656 22 56.8405C22 60.1841 28.6667 56.1718 28.6667 56.1718Z" fill="#784419"/>
<path d="M33.3333 49.4847C33.3333 50.1534 33.3333 51.4908 30.6667 52.1595C28.6667 52.1595 28 51.4908 28 50.1534C30 50.1534 31.3333 50.1534 33.3333 49.4847Z" fill="#FBB023"/>
<path opacity="0.6" d="M28 50.1534C30 50.1534 32 50.1534 33.3333 49.4847C33.3333 50.1534 33.3333 51.4908 30.6667 52.1595C28 52.1595 28 51.4908 28 50.1534ZM30.6667 52.1595C32.6667 51.4908 32 50.1534 31.3333 50.1534C30 50.1534 28.6667 50.1534 28 50.1534C28 50.8221 28 52.1595 30.6667 52.1595Z" fill="#FBB023"/>
<path d="M30.6667 51.4908C28.6667 51.4908 28 50.8221 28 50.1534C28 49.4847 28.6667 50.1534 30 49.4847C30 49.4847 29.3334 49.4847 28.6667 49.4847C28.6667 50.8221 28.6667 51.4908 30.6667 51.4908Z" fill="#FBB023"/>
<path d="M78.6667 38.7853C79.3333 38.7853 79.3333 38.1166 80 37.4479C80 37.4479 80 36.7791 79.3333 36.7791C78.6667 36.1104 76.6667 37.4479 75.3333 38.7853C75.3333 38.7853 74.6667 39.454 74.6667 40.1227C74.6667 40.1227 75.3333 40.1227 76 40.1227C76 40.1227 76 40.1227 76.6667 40.1227H77.3333C77.3333 39.454 78 39.454 78.6667 38.7853Z" fill="#19BEE7"/>
<path d="M120.667 27.4172C120 27.4172 119.333 27.4172 119.333 27.4172C116 27.4172 112 28.7546 109.333 30.7607C108.667 31.4294 103.333 36.1104 102.667 34.773C102 34.1043 102.667 32.0982 103.333 30.7607C103.333 28.7546 101.333 30.7607 101.333 31.4294L100 32.7669C100 32.0982 100 31.4294 100 31.4294C100 30.7607 100.667 29.4233 100 28.7546C99.3333 28.0859 98 28.0859 97.3333 28.7546C96.6667 29.4233 97.3333 30.7607 97.3333 31.4294C97.3333 34.1043 95.3333 36.1104 93.3333 38.1166C92.6667 38.7853 92 39.454 91.3333 40.1227C91.3333 40.1227 91.3333 40.1227 91.3333 40.7914C92 40.7914 94 39.454 94 38.7853C95.3333 38.7853 96 38.1166 97.3333 37.4478C98.6667 37.4478 96.6667 38.1166 96 38.1166C95.3333 38.7853 94 39.454 93.3333 40.1227C92.6667 41.4601 94 40.7914 94.6667 40.7914C95.3333 40.7914 96 40.7914 96.6667 40.7914C96.6667 40.7914 96.6667 40.7914 97.3333 40.7914C98.6667 40.7914 100 40.1227 101.333 40.1227C102 40.1227 103.333 40.1227 103.333 41.4601C103.333 42.7975 102 43.4663 101.333 44.8037C101.333 45.4724 100.667 45.4724 100.667 46.1411C100.667 46.8098 101.333 47.4785 102 47.4785C102.667 48.1472 103.333 47.4785 104 46.8098C104.667 46.1411 104.667 44.8037 106 43.4663C107.333 42.1288 108.667 42.7975 110 42.1288C111.333 42.1288 112.667 41.4601 113.333 40.1227C113.333 39.454 113.333 39.454 113.333 38.7853C112.667 38.1166 110.667 38.7853 110 38.1166C108.667 37.4478 110 36.7791 110.667 36.1104C111.333 36.1104 112.667 36.1104 113.333 36.1104C115.333 35.4417 118 35.4417 120 34.1043C121.333 33.4356 122 32.7669 122.667 32.0982C124 30.092 122.667 28.0859 120.667 27.4172Z" fill="#19BEE7"/>
<path opacity="0.5" d="M120.667 27.4172C121.333 28.0859 121.333 28.0859 120.667 27.4172C122 29.4233 121.333 30.7607 120.667 32.0982C118.667 33.4356 117.333 34.1043 115.333 34.773C114 34.773 113.333 35.4417 112 35.4417C110.667 35.4417 110 36.1104 108.667 36.7791C108 37.4478 107.333 38.1166 107.333 38.7853V39.454C107.333 40.1227 106.667 40.7914 106 40.7914C105.333 40.7914 104.667 40.7914 104 40.7914C103.333 40.1227 103.333 39.454 102.667 38.7853C101.333 38.1166 100 39.454 98.6667 39.454C97.3333 39.454 98 38.1166 98 36.7791C98 36.1104 98.6667 36.1104 98.6667 35.4417C98.6667 34.773 98 34.773 98 35.4417C97.3333 35.4417 96.6667 36.1104 96 36.7791C95.3333 37.4478 94 38.7853 93.3333 38.1166C92.6667 38.7853 92 39.454 91.3333 40.1227C91.3333 40.1227 91.3333 40.1227 91.3333 40.7914C92 40.7914 94 39.454 94 38.7853C95.3333 38.7853 96 38.1166 97.3333 37.4478C98.6667 37.4478 96.6667 38.1166 96 38.1166C95.3333 38.7853 94 39.454 93.3333 40.1227C92.6667 41.4601 94 40.7914 94.6667 40.7914C95.3333 40.7914 96 40.7914 96.6667 40.7914C96.6667 40.7914 96.6667 40.7914 97.3333 40.7914C98.6667 40.7914 100 40.1227 101.333 40.1227C102 40.1227 103.333 40.1227 103.333 41.4601C103.333 42.7975 102 43.4663 101.333 44.8037C101.333 45.4724 100.667 45.4724 100.667 46.1411C100.667 46.8098 101.333 47.4785 102 47.4785C102.667 48.1472 103.333 47.4785 104 46.8098C104.667 46.1411 104.667 44.8037 106 43.4663C107.333 42.1288 108.667 42.7975 110 42.1288C111.333 42.1288 112.667 41.4601 113.333 40.1227C113.333 39.454 113.333 39.454 113.333 38.7853C112.667 38.1166 110.667 38.7853 110 38.1166C108.667 37.4478 110 36.7791 110.667 36.1104C111.333 36.1104 112.667 36.1104 113.333 36.1104C115.333 35.4417 118 35.4417 120 34.1043C121.333 33.4356 122 32.7669 122.667 32.0982C124 30.092 122.667 28.0859 120.667 27.4172Z" fill="#19BEE7"/>
<path d="M118 28.0859C114 28.0859 110.667 30.092 108 32.7669C109.333 32.0982 110.667 31.4294 112 30.7607C114 29.4233 116 28.7546 118 28.0859Z" fill="#C2E6EF"/>
<path d="M102 31.4294C101.333 32.0982 101.333 32.0982 101.333 32.7669C101.333 32.7669 101.333 32.7669 100.667 32.7669V32.0982C100.667 31.4294 100.667 31.4294 102 31.4294C101.333 31.4294 101.333 31.4294 102 31.4294Z" fill="#C2E6EF"/>
<path d="M98.6667 29.4233C98 29.4233 98 29.4233 98.6667 29.4233C98 30.092 98 30.092 98 30.7607C98 30.7607 98 30.7607 98.6667 30.7607C98.6667 30.092 98.6667 30.092 98.6667 29.4233Z" fill="#C2E6EF"/>
<path d="M84 19.3926C84.6667 19.3926 84.6667 18.7239 85.3333 18.0552C85.3333 18.0552 85.3333 17.3865 84.6667 17.3865C83.3333 16.7178 81.3333 18.0552 80.6667 18.7239C80.6667 19.3926 80 20.0613 80 20.7301C80 20.7301 80.6667 20.7301 81.3333 20.7301C81.3333 20.7301 81.3333 20.7301 82 20.7301H82.6667C82.6667 20.0613 83.3333 20.0613 84 19.3926Z" fill="#19BEE7"/>
<path d="M84 18.0552C83.3333 18.0552 83.3333 18.0552 84 18.0552C83.3333 18.0552 83.3333 18.0552 83.3333 18.0552C82.6667 18.0552 82.6667 18.7239 82.6667 19.3926C82.6667 19.3926 83.3333 19.3926 83.3333 18.7239C84 18.7239 84 18.0552 84 18.0552Z" fill="#C2E6EF"/>
<path d="M109.333 20.0613C110 20.0613 110.667 19.3926 110.667 18.7239C110.667 18.7239 110.667 18.0552 110 18.0552C108.667 17.3865 106.667 18.7239 105.333 20.0613C104.667 20.7301 104.667 21.3988 104 22.0675C104.667 22.0675 104.667 22.0675 105.333 21.3988H106C106 21.3988 106.667 21.3988 106.667 20.7301C108 20.7301 108.667 20.7301 109.333 20.0613Z" fill="#19BEE7"/>
<path d="M108.667 18.7239H108C107.333 18.7239 107.333 20.0613 107.333 20.0613C107.333 20.0613 107.333 20.0613 108 20.0613L108.667 19.3926V18.7239Z" fill="#C2E6EF"/>
<path d="M100.667 12.0368C100.667 12.0368 101.333 11.3681 101.333 10.6994C101.333 10.6994 101.333 10.6994 101.333 10.0307C100 9.36196 98.6667 10.6994 98 11.3681C98 12.7055 97.3333 12.7055 97.3333 13.3742H98C98 13.3742 98 13.3742 98.6667 13.3742H99.3333C100 12.7055 100.667 12.7055 100.667 12.0368Z" fill="#19BEE7"/>
<path d="M100.667 10.6994C100 10.6994 100 10.6994 100.667 10.6994C100 11.3681 100 11.3681 100.667 10.6994C100 11.3681 99.3334 11.3681 100 12.0368C100 12.0368 100 12.0368 100.667 10.6994C100.667 11.3681 100.667 11.3681 100.667 10.6994Z" fill="#C2E6EF"/>
<path d="M76.6667 15.3804C76.6667 16.0491 76.6667 16.7178 76.6667 17.3865C76.6667 16.7178 77.3333 16.7178 77.3333 16.0491C77.3333 15.3804 78.6667 14.0429 79.3333 13.3742C79.3333 12.7055 79.3333 11.3681 78 12.0368C78 12.0368 77.3333 13.3742 76.6667 14.0429C76.6667 14.7117 76.6667 15.3804 76.6667 15.3804Z" fill="#19BEE7"/>
<path d="M78.6667 12.7055C78 12.7055 78 13.3742 78 13.3742C78 13.3742 77.3334 14.0429 78 14.0429L78.6667 13.3742C78.6667 13.3742 79.3334 12.7055 78.6667 12.7055Z" fill="#C2E6EF"/>
<path d="M84.6667 33.4356C85.3333 33.4356 86 33.4356 86.6667 32.7669V32.0982C86 30.7607 83.3333 31.4294 82 31.4294C81.3333 31.4294 80.6667 32.0982 80 32.0982C80.6667 32.0982 80.6667 32.0982 81.3333 32.0982C81.3333 32.0982 81.3333 32.0982 82 32.0982H82.6667C83.3333 33.4356 84 33.4356 84.6667 33.4356Z" fill="#19BEE7"/>
<path d="M85.3333 32.0982C84.6666 32.0982 84.6666 32.0982 85.3333 32.0982C85.3333 32.7669 85.3333 32.7669 85.3333 32.0982Z" fill="#C2E6EF"/>
<path d="M71.3333 34.773C71.3333 35.4417 71.3333 36.1104 71.3333 36.7791C71.3333 36.1104 72 36.1104 72 35.4417C72 34.773 73.3333 33.4356 74 32.7669C74 32.0982 74 30.7607 72.6667 31.4294C72 31.4294 72 32.7669 71.3333 33.4356C71.3333 34.1043 71.3333 34.773 71.3333 34.773Z" fill="#19BEE7"/>
<path d="M73.3333 32.0982C72.6667 32.7669 72.6667 32.7669 73.3333 32.0982C72.6667 32.7669 72.6667 32.7669 72.6667 32.7669C73.3333 32.7669 73.3333 32.7669 73.3333 32.0982Z" fill="#C2E6EF"/>
<path d="M130 64.1963C130 64.865 128.667 65.5337 128 65.5337C126.667 66.2025 124.667 66.8712 122.667 66.8712C122 66.8712 122 66.8712 122 67.5399H121.333C122 67.5399 123.333 67.5399 124 67.5399C124.667 67.5399 126 67.5399 126 68.8773C126 69.546 124.667 70.2147 124 70.8834C122.667 71.5521 120.667 72.2209 119.333 71.5521C118.667 70.8834 118.667 69.546 118 69.546C116.667 69.546 116 70.2147 114.667 70.2147C114 70.2147 112.667 70.8834 112 70.8834C111.333 70.8834 110.667 71.5521 110 70.8834C108.667 70.2147 110.667 69.546 109.333 69.546C108 69.546 106 70.2147 105.333 68.2086C105.333 67.5399 106.667 66.2024 107.333 66.2024C109.333 64.865 110.667 64.1963 112.667 63.5276C113.333 63.5276 116.667 62.1902 116.667 63.5276C116.667 64.1963 116.667 64.1963 116 64.865C116 65.5337 114.667 66.2024 115.333 66.2024C116.667 65.5337 118.667 64.865 119.333 64.865C121.333 64.1963 124 63.5276 126 63.5276C127.333 62.8589 130 62.8589 130 64.1963Z" fill="#19BEE7"/>
<path opacity="0.5" d="M128 65.5337C127.333 66.2025 126.667 66.2024 125.333 66.2024C124 66.8712 122 66.8712 120.667 67.5399C121.333 67.5399 122 67.5399 122.667 68.2086C122.667 68.8773 122.667 68.8773 122 69.546C120.667 70.2147 118.667 70.2147 118.667 68.2086C118 68.2086 117.333 68.2086 116 68.8773C114.667 69.546 113.333 70.2147 112 69.546C111.333 69.546 110.667 69.546 110.667 68.2086C110.667 67.5399 111.333 67.5399 112 66.8712C110 67.5399 106.667 68.8773 106 66.8712V66.2024C105.333 66.8712 104.667 67.5399 104.667 67.5399C105.333 68.8773 107.333 68.8773 108.667 68.8773C110 68.8773 108 70.2147 109.333 70.2147C110 70.2147 110.667 70.2147 111.333 70.2147C112 70.2147 113.333 70.2147 114 69.546C115.333 68.8773 116 68.8773 117.333 68.8773C118 68.8773 118 70.2147 118.667 70.8834C120 71.5521 122 70.8834 123.333 70.2147C124 70.2147 125.333 69.546 125.333 68.2086C125.333 66.8712 124 66.8712 123.333 66.8712C122.667 66.8712 121.333 66.8712 120.667 66.8712C120.667 66.8712 120.667 66.8712 121.333 66.8712C121.333 66.8712 122 66.8712 122 66.2024C124.667 66.8712 126.667 66.2025 128 65.5337C128.667 65.5337 130 64.865 130 64.1963C129.333 64.865 128.667 64.865 128 65.5337Z" fill="#19BEE7"/>
<path d="M125.333 64.865C124.667 65.5337 124 65.5337 123.333 65.5337C122.667 65.5337 121.333 66.2025 121.333 64.865C121.333 64.1963 122 64.1963 122.667 64.1963C123.333 63.5276 124.667 63.5276 125.333 63.5276C126 64.1963 125.333 64.1963 125.333 64.865Z" fill="#C2E6EF"/>
<path d="M119.333 65.5337C118.667 66.2025 119.333 66.2025 119.333 65.5337C119.333 66.2025 120 65.5337 119.333 65.5337Z" fill="#C2E6EF"/>
<path d="M111.333 64.865C110.667 65.5337 110.667 65.5337 111.333 64.865C110.667 64.865 110.667 64.865 111.333 64.865Z" fill="#C2E6EF"/>
</svg>
